<?xml version="1.0" encoding="UTF-8"?>
<svg xmlns="http://www.w3.org/2000/svg" viewBox="0 0 2040.94 1020.47">
  <g id="Layer_1" data-name="Layer 1">
    <ellipse cx="453.29" cy="339.71" rx="69.29" ry="67.14" fill="#f5929a" stroke="#231f20" stroke-miterlimit="10" stroke-width=".65"/>
    <ellipse cx="533.29" cy="319" rx="69.29" ry="67.14" fill="#f5929a" stroke="#231f20" stroke-miterlimit="10" stroke-width=".65"/>
    <ellipse cx="474.71" cy="410.43" rx="67.14" ry="69.29" transform="translate(12.24 834.6) rotate(-83.37)" fill="#f5929a" stroke="#231f20" stroke-miterlimit="10" stroke-width=".65"/>
    <path d="M503.42,338.89c3.77.52,9.09,1.27,15.48,2.22,20.33,3.01,50.64,7.5,51.61,9.46,1.14,2.29-39.81-2.66-40.63,3.75-.8,6.23,36.75,20.25,36.59,20.35-.2.12-54.03-20.9-59.48-19.51-2.9.74-4.52,2.1-4.52,2.1s-.58.48-.95,1.02c-2.16,3.03,4.13,9.06,4.13,9.06,6.24,5.99,17.81,22.57,11.09,25.03-10.63,3.89-79.85-22.82-77.59-30.45,1.64-5.54,40.3,1.56,40.63-3.75.36-5.77-44.98-18.85-43.72-22.1,1.27-3.27,47.86,8.12,50.01,4.23,2.24-4.05-45.12-21.97-43.34-23.63,1.4-1.31,29.75,10.72,48.88,8.81,7.72-.77,11.8-3.6,12.93-4.39,7.86-5.45,1.2-11.36,6.4-12.7,12.38-3.2,71.89,24.58,68.86,27.49-2.42,2.32-42.67-13.05-52.83-8.16-3.21,1.54-2.73,4.78.09,7.31,6.56,5.88,29,10.75,56.02,10.56" fill="#69001d" stroke="#231f20" stroke-miterlimit="10" stroke-width=".84"/>
    <ellipse cx="555.43" cy="388.29" rx="69.29" ry="67.14" fill="#f5929a" stroke="#231f20" stroke-miterlimit="10" stroke-width=".65"/>
    <path d="M482.46,343.73c-3.78-.4-9.13-.97-15.54-1.7-20.42-2.33-50.86-5.81-51.9-7.73-1.21-2.25,39.88,1.33,40.49-5.1.59-6.25-37.4-19.01-37.24-19.12.19-.13,54.7,19.09,60.1,17.52,2.87-.84,4.45-2.25,4.45-2.25s.56-.5.92-1.05c2.05-3.1-4.43-8.92-4.43-8.92-6.43-5.78-18.55-21.96-11.92-24.65,10.49-4.24,80.57,20.15,78.56,27.85-1.46,5.6-40.33-.22-40.49,5.1-.17,5.78,45.58,17.34,44.43,20.63-1.16,3.31-48.11-6.52-50.13-2.56-2.1,4.12,45.83,20.45,44.11,22.17-1.36,1.36-30.09-9.72-49.15-7.17-7.69,1.03-11.67,3.99-12.78,4.82-7.68,5.71-.82,11.39-5.98,12.91-12.27,3.61-72.67-22.17-69.74-25.18,2.34-2.4,43.08,11.62,53.07,6.39,3.15-1.65,2.57-4.87-.33-7.3-6.76-5.66-29.34-9.77-56.34-8.69" fill="#69001d" stroke="#231f20" stroke-miterlimit="10" stroke-width=".84"/>
  </g>
  <g id="Layer_3" data-name="Layer 3">
    <path d="M532.57,375.43c3.77.52,9.09,1.27,15.48,2.22,20.33,3.01,50.64,7.5,51.61,9.46,1.14,2.29-39.81-2.66-40.63,3.75-.8,6.23,36.75,20.25,36.59,20.35-.2.12-54.03-20.9-59.48-19.51-2.9.74-4.52,2.1-4.52,2.1s-.58.48-.95,1.02c-2.16,3.03,4.13,9.06,4.13,9.06,6.24,5.99,17.81,22.57,11.09,25.03-10.63,3.89-79.85-22.82-77.59-30.45,1.64-5.54,40.3,1.56,40.63-3.75.36-5.77-44.98-18.85-43.72-22.1,1.27-3.27,47.86,8.12,50.01,4.23,2.24-4.05-45.12-21.97-43.34-23.63,1.4-1.31,29.75,10.72,48.88,8.81,7.72-.77,11.8-3.6,12.93-4.39,7.86-5.45,1.2-11.36,6.4-12.7,12.38-3.2,71.89,24.58,68.86,27.49-2.42,2.32-42.67-13.05-52.83-8.16-3.21,1.54-2.73,4.78.09,7.31,6.56,5.88,29,10.75,56.02,10.56" fill="#69001d" stroke="#231f20" stroke-miterlimit="10" stroke-width=".84"/>
    <ellipse cx="525.59" cy="387.83" rx="34.78" ry="72.23" fill="#f5929a" stroke="#231f20" stroke-miterlimit="10" stroke-width=".51"/>
    <path d="M533.4,318.62c8.11,3.3,14.02,10.79,17.33,18.69,4.04,9.67,4.78,20.37,5.16,30.72.79,21.42-.89,43.31-8.97,63.37-4.27,10.59-10.4,20.48-17.88,29.09-.89,1.02-1,2.53,0,3.54.9.9,2.65,1.02,3.54,0,7.12-8.19,13.06-17.36,17.47-27.28s7.49-21.08,9.12-32.15,2.11-22.51,1.81-33.81-.9-22.88-4.91-33.49-11-19.28-21.33-23.49c-1.25-.51-2.75.55-3.08,1.75-.39,1.43.49,2.56,1.75,3.08h0Z" fill="#231f20"/>
    <path d="M523.99,314.01c-6.81,7.73-13.72,15.59-18.7,24.67-2.57,4.7-4.55,9.69-5.83,14.9-1.36,5.55-2.04,11.25-2.76,16.91-2.78,21.98-5.48,44.82,1.13,66.41,3.23,10.56,8.59,20.51,16.47,28.33,2.29,2.27,5.82-1.26,3.54-3.54-13.77-13.68-18.71-33.52-19.1-52.39-.24-11.43.98-22.84,2.39-34.17,1.3-10.48,2.3-21.27,6.94-30.92s12.19-18.41,19.47-26.67c.89-1.01,1-2.54,0-3.54-.91-.91-2.64-1.02-3.54,0h0Z" fill="#69001d"/>
    <path d="M516.42,468.76c10.61-14.83,21.26-29.71,30.01-45.74s15.52-33.05,18.16-51.06c1.49-10.18,1.63-20.41.13-30.6-.2-1.34-1.89-2.07-3.08-1.75-1.43.39-1.94,1.73-1.75,3.08,2.56,17.34-.29,35.08-5.97,51.53-5.79,16.79-14.7,32.31-24.45,47.08-5.58,8.45-11.48,16.69-17.37,24.93-.79,1.1-.19,2.78.9,3.42,1.26.74,2.63.2,3.42-.9h0Z" fill="#69001d"/>
    <path d="M513.6,457.61c-2.99-19.56-2.69-39.69.88-59.16,1.02-5.56,2.31-11.07,3.84-16.51.87-3.1-3.95-4.43-4.82-1.33-5.54,19.71-7.81,40.37-6.6,60.81.35,5.87.99,11.71,1.88,17.52.2,1.34,1.88,2.07,3.08,1.75,1.43-.39,1.95-1.74,1.75-3.08h0Z" fill="#69001d"/>
    <path d="M519.27,458.29c-1.65-27.77,1.94-55.73,10.52-82.19,2.42-7.47,5.23-14.81,8.45-21.97.55-1.23.36-2.69-.9-3.42-1.07-.62-2.87-.34-3.42.9-11.65,25.99-18.4,54.04-19.78,82.5-.39,8.06-.34,16.13.14,24.19.19,3.2,5.19,3.22,5,0h0Z" fill="#69001d"/>
    <path d="M522.97,449.67c1.36-20.37,6.56-40.53,15.24-59.01,2.46-5.23,5.19-10.32,8.17-15.26,1.67-2.76-2.66-5.28-4.32-2.52-10.88,18.06-18.4,38.16-21.97,58.94-1.02,5.91-1.73,11.87-2.13,17.86-.09,1.35,1.21,2.5,2.5,2.5,1.43,0,2.41-1.15,2.5-2.5h0Z" fill="#69001d"/>
    <path d="M519.31,450.47c-4.9-29.14-6.09-58.9-3.62-88.35.69-8.27,1.68-16.51,2.96-24.7.21-1.33-.34-2.69-1.75-3.08-1.19-.33-2.87.4-3.08,1.75-4.67,29.89-5.64,60.32-2.7,90.44.83,8.46,1.95,16.89,3.36,25.27.22,1.33,1.87,2.08,3.08,1.75,1.41-.39,1.97-1.74,1.75-3.08h0Z" fill="#69001d"/>
    <path d="M526.61,455.42c-1.33-16.1.6-32.34,5.71-47.67,1.43-4.3,3.11-8.5,5.04-12.6.57-1.22.34-2.7-.9-3.42-1.08-.63-2.84-.33-3.42.9-7.15,15.22-11.19,31.77-11.78,48.58-.17,4.74-.04,9.49.35,14.22.11,1.35,1.07,2.5,2.5,2.5,1.27,0,2.61-1.15,2.5-2.5h0Z" fill="#69001d"/>
    <path d="M522.62,468.93c7.07-23.67,21.4-44.24,30.27-67.18,2.5-6.46,4.52-13.11,5.8-19.92.25-1.33-.37-2.7-1.75-3.08-1.22-.33-2.83.41-3.08,1.75-4.55,24.29-18.47,45.17-28.52,67.36-2.91,6.42-5.53,12.98-7.55,19.74-.92,3.09,3.9,4.41,4.82,1.33h0Z" fill="#69001d"/>
    <path d="M521.71,466.59c12.16-20.49,22.61-41.97,31.27-64.17,2.45-6.27,4.74-12.6,6.9-18.98,1.03-3.06-3.8-4.37-4.82-1.33-7.51,22.24-16.82,43.85-27.86,64.56-3.13,5.87-6.4,11.67-9.8,17.4-1.65,2.77,2.67,5.29,4.32,2.52h0Z" fill="#69001d"/>
    <path d="M557.56,396.87c-.62,20.49-10.28,40.23-25.5,53.85-4.3,3.85-9.06,7.14-14.16,9.86l3.03,3.93c17.12-19.87,34.83-40.65,41.9-66.49,1.92-7.02,2.97-14.3,2.94-21.59-.02-3.24-4.82-3.2-5,0-1.33,23.9-11.54,47.11-27.9,64.53-4.61,4.91-9.68,9.37-15.19,13.25-1.1.78-1.62,2.19-.9,3.42.64,1.09,2.31,1.68,3.42.9,20.66-14.55,35.76-36.47,42.22-60.9,1.83-6.93,2.95-14.05,3.34-21.2h-5c.13,25.55-13.7,48.34-29.17,67.66-4.6,5.74-9.4,11.32-14.2,16.89-1.83,2.12.44,5.31,3.03,3.93,19.2-10.24,33.58-28.76,39.37-49.67,1.65-5.97,2.59-12.16,2.77-18.36.1-3.22-4.9-3.22-5,0h0Z" fill="#69001d"/>
    <path d="M491.76,417.37c6.25,14.21,12.5,28.43,18.74,42.64l3.93-3.03c-5.42-6.71-10.09-14.03-13.96-21.74s-7.3-15.51-8.1-23.81c-.43-4.44-.02-8.95,2.05-12.95l-4.66-1.26c-.53,16.88,3.9,33.86,12.51,48.39,2.45,4.14,5.27,8.06,8.35,11.75.87,1.04,2.64.89,3.54,0,1.03-1.03.87-2.5,0-3.54-10.11-12.11-16.65-27.21-18.73-42.84-.61-4.56-.81-9.17-.66-13.76.08-2.43-3.52-3.47-4.66-1.26-4.26,8.25-3.17,17.77-.43,26.31s7.01,17.3,11.87,25.15c2.83,4.57,5.97,8.93,9.35,13.11.77.96,2.4.9,3.28.2,1.05-.83,1.16-2.05.64-3.23-6.25-14.21-12.5-28.43-18.74-42.64-.54-1.24-2.35-1.52-3.42-.9-1.28.75-1.44,2.18-.9,3.42h0Z" fill="#69001d"/>
  </g>
  <g id="Layer_2" data-name="Layer 2">
    <path d="M527.23,458.54c-8.88,26.44-17.4,53-25.55,79.67s-15.95,53.46-23.37,80.34-14.48,53.87-21.17,80.95-13.01,54.24-18.96,81.49c-5.95,27.25-11.53,54.58-16.73,81.98-.63,3.33-1.26,6.65-1.88,9.98-.25,1.33.37,2.7,1.75,3.08,1.22.33,2.83-.41,3.08-1.75,5.11-27.42,10.6-54.77,16.46-82.04s12.09-54.46,18.69-81.56,13.57-54.11,20.9-81.02c7.34-26.91,15.04-53.72,23.1-80.42,8.07-26.7,16.5-53.29,25.29-79.76,1.07-3.21,2.14-6.42,3.22-9.63s-3.8-4.37-4.82-1.33h0Z" fill="#231f20"/>
    <path d="M414.59,893.85c1.49-15.17,4.77-30.12,9.15-44.71s9.95-29.12,15.96-43.28,12.6-28.42,19.01-42.58,12.81-28.64,18.44-43.28c5.93-15.43,10.74-31.22,15.36-47.08,4.73-16.23,9.38-32.52,15.34-48.36,5.46-14.53,12.15-28.57,19.7-42.13,7.57-13.59,16.01-26.68,24.99-39.36,8.96-12.66,18.48-24.91,28.28-36.93,9.91-12.15,20.11-24.05,30.38-35.9,2.47-2.86,4.95-5.71,7.43-8.56l-3.93-3.03c-10.4,14.83-19.52,30.53-27.51,46.79-8.01,16.29-14.92,33.11-21.05,50.18-6.14,17.1-11.51,34.47-16.48,51.94s-9.62,35.37-14.19,53.12-9.17,35.74-14.07,53.52-10.11,35.33-16.04,52.72c-6.02,17.65-12.83,35.02-20.52,52.01s-16.52,34.22-26.01,50.67-19.72,32.31-30.73,47.7-22.79,30.23-35.28,44.45c-3.04,3.46-6.12,6.88-9.24,10.27-2.18,2.36,1.35,5.91,3.54,3.54,12.92-14.02,25.13-28.68,36.61-43.9,11.44-15.16,22.14-30.88,32.03-47.09s19.01-32.9,27.27-50c8.29-17.15,15.74-34.71,22.3-52.59s11.84-34.72,16.92-52.34c5.11-17.72,9.78-35.55,14.38-53.41s9.14-35.7,13.99-53.47,9.93-35.2,15.74-52.54c5.72-17.09,12.11-33.97,19.55-50.39s15.95-32.45,25.72-47.65c2.39-3.72,4.85-7.38,7.39-11,1.62-2.31-2.07-5.17-3.93-3.03-10.32,11.88-20.64,23.76-30.71,35.85-10.07,12.09-19.91,24.37-29.27,37.02-9.3,12.58-18.12,25.52-26.15,38.95s-15.14,27.13-21.2,41.43c-6.6,15.57-11.72,31.68-16.49,47.89s-9.31,32.61-14.97,48.6c-5.2,14.7-11.29,29.06-17.63,43.3s-12.97,28.45-19.25,42.76-12.26,28.8-17.25,43.62-8.84,29.47-11.14,44.68c-.58,3.85-1.07,7.71-1.45,11.58-.13,1.35,1.24,2.5,2.5,2.5,1.46,0,2.37-1.15,2.5-2.5h0Z" fill="#231f20"/>
    <path d="M385.82,972.53c1.97-32.91,1.85-65.9,1.09-98.84-.76-32.98-2.14-65.95-2.65-98.94-.47-30.73-.18-61.5,2.12-92.17s6.18-58.36,12.93-86.9c6.7-28.31,16.13-56.02,29.17-82.06,1.58-3.16,3.21-6.29,4.89-9.39l-4.57-1.93c-4.49,29.66-7.17,59.55-8.78,89.5-1.61,29.97-2.19,59.98-2.54,89.99-.36,30.02-.49,60.04-1.23,90.05-.74,29.87-2.07,59.74-4.83,89.49-2.75,29.6-6.95,59.08-13.36,88.11-.78,3.55-1.6,7.1-2.45,10.64-.75,3.13,4.07,4.46,4.82,1.33,6.98-29.05,11.67-58.61,14.82-88.32,3.16-29.69,4.77-59.53,5.68-89.37.91-30,1.11-60.01,1.43-90.01.31-30.02.73-60.04,2.09-90.03,1.35-29.83,3.59-59.64,7.63-89.23.49-3.61,1.01-7.21,1.56-10.81.19-1.23-.2-2.45-1.45-2.95-1.11-.45-2.52-.09-3.12,1.02-14,25.86-24.42,53.55-31.9,81.96-7.49,28.47-12.07,57.66-14.78,86.96-2.81,30.48-3.52,61.1-3.27,91.69.26,32.99,1.59,65.96,2.48,98.94.9,33.11,1.35,66.26-.15,99.36-.18,3.97-.39,7.94-.63,11.91-.19,3.21,4.81,3.2,5,0h0Z" fill="#231f20"/>
    <path d="M425.98,509.7c-.1,29.69-.89,59.37-2.38,89.02-1.48,29.48-3.63,58.93-6.47,88.32-2.85,29.48-6.38,58.9-10.6,88.22-4.19,29.08-8.99,58.07-12.64,87.22-3.65,29.14-6.15,58.5-5.61,87.89.07,3.59.18,7.19.34,10.78.14,3.21,5.14,3.22,5,0-1.29-29.37.64-58.77,3.98-87.95,3.33-29.07,8.04-57.96,12.33-86.89,4.36-29.39,8.1-58.87,11.13-88.43,3.01-29.37,5.33-58.81,6.97-88.28s2.61-59.32,2.88-89c.03-3.63.06-7.26.07-10.88.01-3.22-4.99-3.22-5,0h0Z" fill="#231f20"/>
    <path d="M607.33,468.26c-7.8,17.98-15.8,35.87-24.02,53.66-8.22,17.79-16.65,35.49-25.28,53.08-8.47,17.26-17.23,34.37-25.96,51.5s-16.59,32.89-23.88,49.8c-7.34,17.03-13.78,34.48-18.31,52.48s-6.92,36.71-13.81,54.08c-6.45,16.24-17.09,30.4-27.47,44.29-5.25,7.03-10.48,14.06-15.31,21.39s-9.51,15.19-13.78,23.07c-8.55,15.79-15.85,32.22-22.45,48.91s-12.5,33.68-18.23,50.7c-1.4,4.16-2.79,8.32-4.19,12.48-1.02,3.06,3.8,4.37,4.82,1.33,5.69-17.03,11.4-34.06,17.69-50.88s13.08-33.21,21.04-49.18c7.92-15.88,17.01-31.11,27.44-45.47s21.42-27.73,29.64-43.2c4.27-8.04,7.53-16.52,10-25.27,2.54-9.01,4.36-18.21,6.31-27.37,3.84-18.03,9.13-35.58,15.9-52.73s14.71-33.75,22.96-50.2,17.2-33.63,25.62-50.54,17.2-35.04,25.48-52.71,16.43-35.59,24.33-53.52c1.93-4.39,3.85-8.79,5.76-13.19.54-1.24.37-2.68-.9-3.42-1.06-.62-2.88-.35-3.42.9h0Z" fill="#231f20"/>
    <path d="M583.79,489.4c-43.28,37.44-74.64,86.15-99.6,137.19-12.66,25.89-23.84,52.48-34.57,79.22-11.87,29.59-23.6,59.27-34.62,89.18-13.14,35.67-24.91,71.88-33.02,109.05-1.37,6.27,8.27,8.95,9.64,2.66,13.93-63.86,38.51-124.75,62.5-185.34,20.91-52.8,43.1-105.69,74.58-153.21,17.55-26.48,38.1-50.86,62.15-71.67,4.88-4.22-2.22-11.27-7.07-7.07h0Z" fill="#231f20"/>
    <path d="M393.94,961.37c17.72-47.19,46.57-88.93,71.05-132.68,12.09-21.61,23.19-43.89,31.36-67.31,9.2-26.36,13-54.17,21.74-80.65,9.97-30.21,24.94-58.41,39.78-86.45,3.01-5.68-5.62-10.74-8.63-5.05-13.23,25-26.45,50.1-36.46,76.61-10.05,26.63-14.27,54.67-22.47,81.82-14.72,48.74-43.28,91.54-68.62,135.19-14.18,24.42-27.45,49.39-37.39,75.87-2.26,6.03,7.4,8.64,9.64,2.66h0Z" fill="#231f20"/>
    <path d="M596.85,476.57c-5.92,35.59-11.86,71.22-19.97,106.39-8.15,35.33-18.97,69.73-32.66,103.3-13.87,34.03-29.06,67.58-44.01,101.14-14.9,33.43-30.13,66.72-46.42,99.5-8.05,16.2-16.71,32.56-30.61,44.55s-30.52,18.28-48.05,19.38c-6.39.4-6.44,10.4,0,10,32.9-2.06,59.67-20.77,76.42-48.59,9.25-15.37,16.68-31.93,24.38-48.1,8.1-17,15.99-34.1,23.74-51.25,15.61-34.54,30.96-69.21,45.85-104.06s27.48-69.27,36.71-105.55c10.4-40.86,17.33-82.5,24.25-124.06,1.05-6.3-8.59-9-9.64-2.66h0Z" fill="#231f20"/>
    <path d="M591.67,491.33c-47.32,114.47-94.65,228.95-141.97,343.42-6.62,16-13.23,32-19.85,48.01l-9.54,23.08c-1.13,2.73-6.81,21.41-10.6,20.6-6.28-1.34-8.96,8.3-2.66,9.64,14.12,3.02,18.59-17.16,22.52-26.66,6.11-14.77,12.21-29.54,18.32-44.31l37.4-90.47c24.68-59.7,49.36-119.4,74.04-179.1,13.99-33.85,27.99-67.7,41.98-101.55,2.46-5.94-7.21-8.53-9.64-2.66h0Z" fill="#231f20"/>
    <path d="M417.39,511.55c-25.66,48.88-36.27,103.45-41.2,157.99-5.32,58.92-5.77,118.36-7.8,177.45-1.21,35.12-2.42,70.25-3.64,105.37-.22,6.44,9.78,6.43,10,0,2.13-61.63,4.25-123.27,6.38-184.9,1.89-54.84,3.23-110.19,14.61-164.06,6.36-30.12,15.95-59.51,30.28-86.81,2.99-5.69-5.64-10.75-8.63-5.05h0Z" fill="#231f20"/>
    <path d="M417.87,512.65c-9.91,105.97,5.33,212.88-8.33,318.62-3.83,29.67-10.23,59.01-19.84,87.36-2.07,6.11,7.58,8.73,9.64,2.66,34.74-102.45,24.74-212.04,24.84-318.29.03-30.15.88-60.32,3.69-90.35.6-6.4-9.4-6.36-10,0h0Z" fill="#231f20"/>
    <path d="M409.18,519.79c1.25,53.34,2.48,106.74.05,160.07-2.42,53.19-9.46,105.36-21.6,157.2-6.71,28.66-13.4,57.48-14.44,87.02-.23,6.44,9.77,6.43,10,0,.93-26.4,6.57-52.19,12.55-77.82,6.07-26,11.74-51.97,15.5-78.42,7.43-52.25,9.45-105.06,9.38-157.79-.04-30.09-.73-60.17-1.44-90.25-.15-6.42-10.15-6.45-10,0h0Z" fill="#231f20"/>
    <path d="M392.56,604.03c4.19,90.81,1.53,181.91-8.09,272.32-2.72,25.57-6.01,51.07-9.84,76.5-.95,6.3,8.69,9.01,9.64,2.66,13.61-90.34,20.47-181.66,20.22-273.03-.07-26.16-.73-52.31-1.94-78.44-.3-6.41-10.3-6.44-10,0h0Z" fill="#231f20"/>
    <path d="M512.22,458.01c-.25,89.51-32.34,174.26-59.81,258.18-7.85,23.98-15.37,48.06-21.87,72.44-1.66,6.23,7.99,8.88,9.64,2.66,23.08-86.68,59.91-169.69,75.19-258.43,4.26-24.73,6.77-49.75,6.84-74.85.02-6.44-9.98-6.44-10,0h0Z" fill="#231f20"/>
    <path d="M566.16,525.41c-39.06,74.1-75.17,149.74-108.15,226.74-9.23,21.56-18.23,43.22-26.98,64.97-2.4,5.97,7.27,8.56,9.64,2.66,31-77,65.09-152.76,102.16-227.04,10.42-20.88,21.09-41.64,31.97-62.29,3-5.69-5.63-10.75-8.63-5.05h0Z" fill="#0b8040"/>
    <path d="M389.73,578.31c3.2,97.96,2.09,196.04-3.38,293.9-1.55,27.77-3.47,55.52-5.71,83.24-.52,6.41,9.48,6.38,10,0,7.91-97.69,11.54-195.71,10.79-293.72-.21-27.81-.79-55.62-1.69-83.42-.21-6.42-10.21-6.45-10,0h0Z" fill="#0b8040"/>
    <path d="M495.78,503.87c-8.33,24.54-10.7,50.44-12.77,76.13s-5.08,52.44-10.33,78.37c-10.35,51.04-27.1,100.53-45.97,148.99-10.83,27.81-22.38,55.33-33.95,82.83-2.49,5.92,7.18,8.51,9.64,2.66,40.5-96.29,80.51-193.96,89.49-299.08,2.51-29.39,3.98-59.08,13.54-87.24,2.07-6.11-7.58-8.73-9.64-2.66h0Z" fill="#0b8040"/>
    <path d="M410.55,940.79c17.81-59.3,39.09-117.5,62.92-174.64,11.76-28.18,24.15-56.09,37.03-83.78s26.66-54.95,39.55-82.63c14.16-30.39,26.87-61.63,33.68-94.57,1.3-6.28-8.34-8.97-9.64-2.66-12.33,59.65-43.41,113.32-69.02,167.94-25.93,55.31-49.94,111.55-71.09,168.87-12.03,32.59-23.1,65.53-33.09,98.81-1.85,6.18,7.79,8.82,9.64,2.66h0Z" fill="#0b8040"/>
    <path d="M427.93,928.36c21.81-102.04,82.53-188.89,128.37-280.92,13.07-26.23,25-53.06,34.7-80.73,2.13-6.09-7.53-8.7-9.64-2.66-34.33,97.99-96.81,182.7-136.52,278.28-11.21,26.98-20.43,54.78-26.54,83.37-1.34,6.28,8.3,8.96,9.64,2.66h0Z" fill="#0b8040"/>
    <path d="M425.74,913.03c41.5-89.42,82.99-178.83,124.49-268.25,11.78-25.37,23.55-50.75,35.33-76.12,2.69-5.8-5.93-10.89-8.63-5.05-41.5,89.42-82.99,178.83-124.49,268.25-11.78,25.37-23.55,50.75-35.33,76.12-2.69,5.8,5.93,10.89,8.63,5.05h0Z" fill="#0b8040"/>
    <path d="M411.75,538.27c-10.5,91.21-18.57,182.7-24.17,274.34-1.57,25.71-2.94,51.44-4.12,77.17-.3,6.43,9.7,6.42,10,0,4.23-91.72,10.88-183.32,20.02-274.68,2.56-25.63,5.33-51.25,8.27-76.84.73-6.38-9.27-6.33-10,0h0Z" fill="#0b8040"/>
    <path d="M506.61,469.88c-28.3,116.12-57.3,232.07-87.01,347.84-8.42,32.8-16.89,65.59-25.42,98.36-1.62,6.23,8.02,8.89,9.64,2.66,30.11-115.67,59.51-231.51,88.21-347.54,8.13-32.87,16.2-65.76,24.22-98.66,1.52-6.25-8.12-8.92-9.64-2.66h0Z" fill="#0b8040"/>
    <path d="M530.27,564.84c-23.92,61.71-44.44,124.72-61.32,188.72-4.81,18.24-9.32,36.56-13.56,54.94-1.44,6.26,8.2,8.94,9.64,2.66,14.86-64.49,33.28-128.15,55.25-190.59,6.26-17.79,12.82-35.48,19.63-53.07,2.33-6-7.34-8.6-9.64-2.66h0Z" fill="#0b8040"/>
    <path d="M376.1,654c-.93,74.26-1.85,148.51-2.78,222.77-.26,20.98-.52,41.96-.79,62.94-.08,6.44,9.92,6.44,10,0,.93-74.26,1.85-148.51,2.78-222.77.26-20.98.52-41.96.79-62.94.08-6.44-9.92-6.44-10,0h0Z" fill="#0b8040"/>
    <path d="M387.81,973.25c58.88-93.89,104.17-195.34,146.08-297.69,11.98-29.27,23.7-58.64,35.42-88.02,2.38-5.98-7.28-8.57-9.64-2.66-40.91,102.58-81.97,205.43-134.04,302.99-14.57,27.29-30.01,54.12-46.45,80.33-3.43,5.47,5.22,10.49,8.63,5.05h0Z" fill="#0b8040"/>
    <path d="M430.43,922.6c33.39-63.36,64.41-127.95,92.91-193.65,7.97-18.37,15.74-36.82,23.34-55.34,2.44-5.95-7.23-8.54-9.64-2.66-26.87,65.57-56.21,130.12-87.94,193.48-8.91,17.8-18.02,35.51-27.3,53.12-3,5.69,5.63,10.75,8.63,5.05h0Z" fill="#0b8040"/>
    <path d="M513.37,465.93c-18.66,56.57-35.08,113.87-49.15,171.75-6.91,28.43-12.32,57.35-20.83,85.37-7.81,25.71-19.64,49.73-31.72,73.64-13.59,26.89-27.27,53.95-35.26,83.13-1.7,6.22,7.94,8.87,9.64,2.66,14.27-52.17,46.88-96.72,64.1-147.77,9.34-27.68,14.68-56.57,21.44-84.94,6.76-28.34,14.08-56.55,21.95-84.6,9.09-32.42,18.94-64.62,29.48-96.6,2.02-6.13-7.63-8.75-9.64-2.66h0Z" fill="#0b8040"/>
    <path d="M545.24,540.55c-30.66,74.02-54.67,150.68-71.72,228.97-1.37,6.27,8.27,8.95,9.64,2.66,17.04-78.28,41.06-154.95,71.72-228.97,2.46-5.94-7.21-8.53-9.64-2.66h0Z" fill="#0b8040"/>
    <path d="M401.15,559.97c-24.46,45.73-31.45,97.72-33.97,148.86-2.81,56.84-3.47,114.03-3.12,170.94.2,32.92,1.17,65.84,3.42,98.69.44,6.39,10.44,6.43,10,0-3.95-57.84-3.89-115.85-2.84-173.79.95-52.71-.02-106.52,8.81-158.65,4.77-28.15,12.83-55.74,26.34-80.99,3.03-5.67-5.59-10.73-8.63-5.05h0Z" fill="#0b8040"/>
  </g>
</svg>