<?xml version="1.0" encoding="UTF-8"?>
<svg id="Layer_1" data-name="Layer 1" xmlns="http://www.w3.org/2000/svg" viewBox="0 0 2040.94 1020.47">
  <polygon points="515.43 796.86 492.82 791.11 480.37 810.83 478.85 787.55 456.25 781.8 477.92 773.17 476.4 749.89 491.31 767.83 512.98 759.2 500.52 778.92 515.43 796.86" fill="#005526"/>
  <polygon points="494 798.29 464.54 788.22 445.85 813.13 446.33 781.99 416.86 771.92 446.62 762.75 447.09 731.62 465.01 757.08 494.76 747.91 476.08 772.82 494 798.29" fill="#005526"/>
  <path d="M492.82,791.11l-32.45-5.83c-3.95,25.28-7.89,50.55-11.84,75.83,11.46,16.6,18.6,24.22,21.43,22.86,5.29-2.55-4.59-36.64-29.65-102.28-10.82-1.94-21.63-3.88-32.45-5.83l29.68-14.36-4.49-32.66,22.83,23.79,29.68-14.36-15.57,29.06c1.91,67.31-1.13,113.15-12.89,115.22-20.91,3.68-70.93-130.79-61.43-135.71,6.6-3.42,48.53,52.23,52.86,114.29.55,7.87,1.6,22.91-2.86,24.29-13.75,4.26-63.47-126.88-62.86-127.14.6-.26,41.32,128.28,74.29,124.29,18.46-2.24,29.18-45.4,35.71-91.43Z" fill="#005526"/>
</svg>