<?xml version="1.0" encoding="UTF-8"?>
<svg xmlns="http://www.w3.org/2000/svg" viewBox="0 0 2040.94 1020.47">
  <g id="Layer_1" data-name="Layer 1">
    <path d="M357.02,820.57c-11.37-29.01-20.3-59.18-23.5-90.18-6.09-58.93,8.66-117.8,23.29-175.21-1.22,8.77-2.44,17.55-3.66,26.32-3.1,22.28-6.21,44.66-6.08,67.15.33,59.19,22.93,118.69,9.95,176.44" fill="#005526"/>
    <path d="M369.6,848.79c53.24-88.66,59.79-198.48,107.81-290.07-20.89,57.62-42.01,116.38-44.41,177.62-.52,13.39-.15,26.86-2.21,40.1-5.54,35.69-29.83,67.91-62.61,83.07" fill="#3b451c"/>
    <path d="M355.15,858.28c2.29-130.31,28.69-260.17,77.47-381.03-32.11,87.5-54.84,179.72-52.77,272.9.42,18.77,1.83,37.66-.87,56.24-2.7,18.58-10.01,37.23-24.2,49.53" fill="#3b451c"/>
  </g>
  <g id="Layer_2" data-name="Layer 2">
    <path d="M346.45,826.86c-.62-17.87,1.18-35.73,5.4-53.1l-4.91-.66c1.62,18.21,3.23,36.42,4.85,54.63.11,1.24.87,2.3,2.17,2.46,1.11.13,2.56-.55,2.74-1.79,2.54-16.84,5.07-33.68,7.61-50.51s4.86-33.12,8-49.56c1.76-9.21,3.78-18.37,6.22-27.43.84-3.14-3.77-4.34-4.82-1.33-6.35,18.08-7.53,37.44-7.81,56.45s.44,37.81-2.4,56.48c-1.57,10.32-4.25,20.53-8.71,29.99l4.57,1.93c6.37-16.34,12.85-32.64,19.43-48.9s13.27-32.47,20.06-48.65c3.81-9.06,7.65-18.11,11.53-27.15.53-1.24.37-2.68-.9-3.42-1.18-.69-2.72-.26-3.42.9-8.41,14.03-16.93,28.38-21.39,44.25-2.36,8.39-3.09,16.88-3.15,25.56-.03,4.46-.02,8.93-.46,13.37-.41,4.17-1.4,8.24-2.57,12.25-2.58,8.9-5.95,17.76-5.75,27.17.07,3.21,5.07,3.22,5,0-.17-8.12,2.55-15.82,4.87-23.49,1.16-3.83,2.25-7.7,2.89-11.66.72-4.47.93-8.99.98-13.51s0-8.94.31-13.4c.28-3.98.93-7.92,1.87-11.81,1.86-7.7,4.79-15.09,8.26-22.2,4.03-8.25,8.73-16.16,13.45-24.03l-4.32-2.52c-6.97,16.24-13.83,32.53-20.59,48.86s-13.43,32.77-19.98,49.22c-3.69,9.26-7.34,18.53-10.96,27.81-1.02,2.62,3.36,4.48,4.57,1.93,8.19-17.36,10.65-36.48,11.35-55.47.71-19.23-.23-38.53,1.6-57.72,1.01-10.51,2.96-20.94,6.47-30.92l-4.82-1.33c-4.33,16.09-7.33,32.5-9.95,48.94-2.66,16.68-5.08,33.4-7.6,50.11-1.43,9.48-2.86,18.96-4.29,28.44l4.91.66c-1.62-18.21-3.23-36.42-4.85-54.63-.11-1.24-.87-2.3-2.17-2.46-1.19-.14-2.44.56-2.74,1.79-4.32,17.78-6.21,36.14-5.57,54.43.11,3.21,5.11,3.22,5,0h0Z" fill="#3b451c"/>
    <path d="M341.39,824l.39,25.1c.04,2.87,4.04,3.33,4.91.66.97-2.97,1.93-5.93,2.9-8.9.4-1.22.71-2.54,1.24-3.71.11-.24.27-.67.5-.8-.02.01-.02-.06.2.04.76.36,1.3,1.31,1.7,2.01.69,1.22,1.22,2.55,1.81,3.82,1.32,2.87,2.64,5.73,3.96,8.6.41.88,1.6,1.33,2.49,1.19,1.06-.16,1.69-.83,2.08-1.79,1.31-3.23,2.61-6.45,3.92-9.68l-4.18,1.1c2,1.68,4,3.35,6,5.03,1.25,1.05,3.89.94,4.18-1.1.05-.34.29-.92.25-1.25,0,.03-.03.05-.06.06-1.85.59-2.53-.05-2.05-1.91l.9-.9-.19.14c-1.09.79-1.63,2.17-.9,3.42.63,1.08,2.32,1.7,3.42.9,2.42-1.76,1.73-5.38-1.2-6.19s-4.66,1.96-5,4.4l4.18-1.1c-2-1.68-4-3.35-6-5.03-1.54-1.29-3.45-.7-4.18,1.1-1.31,3.23-2.61,6.45-3.92,9.68l4.57-.6c-1.59-3.46-3.18-6.91-4.77-10.37-1.25-2.72-3.02-5.92-6.26-6.51-3.85-.69-5.73,2.66-6.74,5.76-1.23,3.74-2.44,7.49-3.66,11.24l4.91.66-.39-25.1c-.05-3.21-5.05-3.22-5,0h0Z" fill="#3b451c"/>
    <path d="M377.99,799.13c3.4,14.19.39,29.46-7.94,41.41l4.66,1.26c.97-13.73,3.36-27.31,7.08-40.56l-4.82-1.33c-2.59,13.78-8.06,26.82-16.06,38.33-.77,1.11-.2,2.78.9,3.42,1.25.73,2.65.21,3.42-.9,7.15-10.25,12.28-21.89,15.03-34.07.65-2.89-2.92-4.16-4.57-1.93-8.45,11.44-15.92,23.58-22.33,36.28l4.66,1.26c1.15-16.7,3.84-33.26,8.01-49.47l-4.91-.66c-.99,16.1-5.6,31.88-13.4,46h4.32c-6.81-16.02-8.99-34.15-6.27-51.34.78-4.91,1.94-9.75,3.46-14.48l-4.91-.66c1.48,17.74,2.97,35.48,4.45,53.22.42,5.03.84,10.07,1.26,15.1.19,2.3,3.4,3.61,4.66,1.26,8.58-16.02,12.03-33.93,13.83-51.84,1.82-18.04,2-36.25,4.54-54.22,1.42-10.07,3.6-20.05,7.15-29.61.92-2.47-2.49-4.02-4.18-2.43-12.23,11.5-14.37,29.58-15.99,45.39-1.98,19.3-2.03,38.8-.17,58.11,1.05,10.96,2.71,21.87,4.96,32.65.49,2.34,4.41,2.43,4.82,0,3.1-18.22,6.22-36.55,12.27-54.07,2.89-8.38,6.58-16.36,10.84-24.13s8.48-14.74,12.31-22.34c4.27-8.46,7.84-17.35,9.25-26.77.17-1.12-.11-2.22-1.15-2.82-.94-.55-2.27-.41-3.03.39-11.81,12.45-13.88,30.1-19.13,45.72-3.09,9.18-7.59,17.78-11.54,26.6-4.03,9-7.26,18.23-8.84,27.99-1.79,11.14-1.73,22.42.19,33.54.37,2.14,3.61,2.4,4.57.6,4.84-9.04,9.68-18.08,14.52-27.13l-4.57-1.93c-2.43,10.28-4.86,20.56-7.29,30.83l4.91.66c-.58-5.19-1.17-10.37-1.75-15.56-.12-1.11-.69-2.1-1.84-2.41-1.05-.29-2.28.19-2.82,1.15-3.68,6.51-5.83,13.69-6.43,21.14h5c.05-4.35-.57-8.69-1.85-12.84-.71-2.29-4.19-2.46-4.82,0-1.06,4.14-2.12,8.29-3.17,12.43l4.57-.6c-2.05-3.69-4.49-7.64-8.7-9.09-3.66-1.26-8.23-.18-10.17,3.36l3.42-.9c-1.68-.75-3.36-1.5-5.04-2.25-1.28-.57-2.62-.34-3.42.9-.84,1.3-1.69,2.59-2.53,3.89-1.76,2.71,2.57,5.21,4.32,2.52.84-1.3,1.69-2.59,2.53-3.89l-3.42.9c1.68.75,3.36,1.5,5.04,2.25,1.21.54,2.71.39,3.42-.9.86-1.57,3.12-1.74,4.8-.94,2.62,1.24,4.11,4.26,5.44,6.67,1.04,1.87,4.04,1.47,4.57-.6,1.06-4.14,2.12-8.29,3.17-12.43h-4.82c1.16,3.76,1.72,7.58,1.67,11.51-.04,3.26,4.74,3.17,5,0,.53-6.55,2.52-12.91,5.75-18.62l-4.66-1.26c.58,5.19,1.17,10.37,1.75,15.56.14,1.24.84,2.3,2.17,2.46,1.19.14,2.45-.56,2.74-1.79,2.43-10.28,4.86-20.56,7.29-30.83.63-2.67-3.19-4.51-4.57-1.93-4.84,9.04-9.68,18.08-14.52,27.13l4.57.6c-3.26-18.9-.4-38.05,7.21-55.57,3.8-8.76,8.25-17.23,11.64-26.17,2.96-7.81,4.8-15.98,7.22-23.96,2.54-8.41,5.83-16.8,11.96-23.27l-4.18-2.43c-2.52,16.81-11.83,31.29-19.94,45.87-4.33,7.79-8.23,15.76-11.31,24.13s-5.63,17.59-7.64,26.59c-2.28,10.17-4.03,20.44-5.78,30.7h4.82c-3.85-18.47-5.9-37.28-6.11-56.15-.11-9.42.24-18.84,1.03-28.23.71-8.4,1.59-16.89,3.58-25.09s5.25-16,11.42-21.81l-4.18-2.43c-6.32,17.04-8.25,35.29-9.52,53.3-1.26,17.81-1.8,35.8-5.59,53.31-2.1,9.68-5.22,19.12-9.9,27.87l4.66,1.26c-1.48-17.74-2.97-35.48-4.45-53.22-.42-5.03-.84-10.07-1.26-15.1-.23-2.77-4.01-3.45-4.91-.66-5.68,17.62-6.23,36.8-1.75,54.75,1.28,5.11,3,10.07,5.06,14.92.75,1.76,3.49,1.5,4.32,0,8.23-14.91,13.04-31.53,14.08-48.52.17-2.83-4.22-3.37-4.91-.66-4.27,16.64-7.01,33.66-8.19,50.8-.17,2.45,3.56,3.44,4.66,1.26,6.4-12.7,13.87-24.84,22.33-36.28l-4.57-1.93c-2.67,11.81-7.59,22.95-14.52,32.88l4.32,2.52c8.22-11.82,13.9-25.38,16.56-39.53.59-3.12-3.94-4.47-4.82-1.33-3.84,13.67-6.26,27.72-7.26,41.89-.19,2.68,3.37,3.12,4.66,1.26,9.08-13.03,12.14-29.84,8.45-45.26-.75-3.13-5.57-1.8-4.82,1.33h0Z" fill="#3b451c"/>
  </g>
</svg>