<?xml version="1.0" encoding="UTF-8"?>
<svg id="Layer_2" data-name="Layer 2" xmlns="http://www.w3.org/2000/svg" viewBox="0 0 2040.94 1020.47">
  <g id="Layer_1" data-name="Layer 1">
    <path d="M519.6,801.24c-2.98-8.65-31.97-6.02-52.36.75-3.34,1.11-32.86,11.1-31.84,20.21.96,8.56,28.85,16.39,52.36,8.23,17.57-6.1,34.41-21.74,31.84-29.19Z" fill="#005526"/>
    <path d="M488.47,813.21c-1.3-12.1,43.61-39.12,79.24-23.2,9.54,4.26,26.32,15.13,24.76,24.7-2.56,15.71-53.66,22.61-91.27,7.48-11.81-4.75-12.61-7.77-12.74-8.98Z" fill="#005526"/>
    <path d="M482.57,816.08c-20.91-65.1-21.55-82.46-17.23-84.65,7.99-4.06,46.71,36.84,37.15,73.23-2.94,11.2-9.69,19.04-14.83,23.8" fill="#005526"/>
    <path d="M503.32,800.49c18.65-.64,33.17,35.08,36.79,59.13,1.54,10.25,2.58,17.14-.71,19.46-10.68,7.55-63.32-35.68-55.19-62.87,2.57-8.6,11.17-15.45,19.1-15.72Z" fill="#005526"/>
    <path d="M491.72,788.33c-8.79-2.54-23.31,22.69-29.5,43.26-1.01,3.37-9.82,33.26-1.78,37.67,7.55,4.14,30-14.17,36.85-38.1,5.12-17.88,2.01-40.65-5.57-42.83Z" fill="#005526"/>
    <path d="M483.61,820.68c-10.64-5.9-6.92-58.17,26.59-78.17,8.98-5.36,27.51-12.83,34.45-6.05,11.38,11.13-12.37,56.9-46.37,78.97-10.67,6.93-13.61,5.84-14.67,5.25Z" fill="#005526"/>
    <path d="M482.57,827.15c-65.28-20.34-79.85-29.79-79.16-34.59,1.27-8.88,57-17.02,81.28,11.73,7.47,8.85,10,18.87,10.94,25.82" fill="#005526"/>
    <path d="M481.75,801.21c10.2-15.63,47.78-6.96,69.53,3.91,9.27,4.63,15.5,7.74,15.51,11.77.03,13.08-65.6,31.28-83.17,8.99-5.55-7.05-6.21-18.02-1.87-24.67Z" fill="#005526"/>
  </g>
  <path d="M410.41,835.26c6.78,15.9,13.38,31.87,19.82,47.92,6.45,16.09,12.73,32.25,18.83,48.48,3.45,9.19,6.85,18.39,10.19,27.62.46,1.27,1.7,2.12,3.08,1.75,1.23-.34,2.21-1.8,1.75-3.08-5.96-16.46-12.09-32.85-18.4-49.17-6.28-16.25-12.75-32.42-19.39-48.53-3.79-9.2-7.64-18.37-11.54-27.52-.53-1.24-2.36-1.52-3.42-.9-1.29.75-1.43,2.17-.9,3.42h0Z" fill="#005526"/>
  <path d="M462.09,954.31c5.19-21.5,10.38-43,15.57-64.51,5.19-21.5,10.38-43,15.57-64.51,2.93-12.13,5.85-24.25,8.78-36.38.75-3.13-4.07-4.46-4.82-1.33-5.19,21.5-10.38,43-15.57,64.51-5.19,21.5-10.38,43-15.57,64.51-2.93,12.13-5.85,24.25-8.78,36.38-.75,3.13,4.07,4.46,4.82,1.33h0Z" fill="#005526"/>
  <path d="M459.7,954.92c7.9-17.27,15.34-34.75,22.29-52.42,6.93-17.62,13.38-35.43,19.33-53.4,3.35-10.12,6.55-20.29,9.59-30.51.92-3.09-3.9-4.41-4.82-1.33-5.35,18-11.19,35.85-17.51,53.52-6.35,17.75-13.18,35.33-20.49,52.71-4.08,9.7-8.32,19.33-12.7,28.9-.56,1.23-.35,2.69.9,3.42,1.08.63,2.86.34,3.42-.9h0Z" fill="#005526"/>
  <path d="M460.75,960.16c11.06-15.19,21.72-30.66,31.96-46.42s19.98-31.64,29.34-47.84c5.31-9.19,10.48-18.46,15.51-27.8,1.53-2.83-2.79-5.36-4.32-2.52-8.91,16.54-18.25,32.85-28.02,48.9-9.73,15.98-19.88,31.7-30.43,47.15-5.99,8.76-12.11,17.43-18.36,26.01-.8,1.09-.19,2.79.9,3.42,1.26.74,2.62.2,3.42-.9h0Z" fill="#005526"/>
  <path d="M461.87,936.83c2.2-31.17,1.11-62.5-3.13-93.45-1.19-8.68-2.64-17.33-4.33-25.93-.26-1.33-1.84-2.08-3.08-1.75-1.38.38-2.01,1.75-1.75,3.08,5.94,30.21,8.74,61,8.37,91.79-.11,8.76-.48,17.52-1.09,26.27-.1,1.35,1.22,2.5,2.5,2.5,1.43,0,2.4-1.15,2.5-2.5h0Z" fill="#005526"/>
</svg>